<svg width="168" height="34" viewBox="0 0 168 34" fill="none" xmlns="http://www.w3.org/2000/svg">
<path d="M38.6976 6.07471C41.3252 6.07471 43.269 6.73159 44.5292 8.04536C45.8161 9.35914 46.4596 11.3566 46.4596 14.0378V26.1835H42.5585V22.9259C42.0491 24.0788 41.285 24.9635 40.2661 25.5802C39.2741 26.1701 38.1078 26.465 36.7672 26.465C35.4802 26.465 34.3005 26.2103 33.2281 25.7009C32.1556 25.1646 31.311 24.4273 30.6944 23.4889C30.1045 22.5505 29.8096 21.5048 29.8096 20.3519C29.8096 18.9309 30.1715 17.8182 30.8954 17.0139C31.6462 16.1827 32.8661 15.5929 34.5552 15.2443C36.2712 14.8958 38.6172 14.7215 41.5933 14.7215H42.5183V13.5552C42.5183 12.0537 42.1966 10.9678 41.5531 10.2975C40.9364 9.62725 39.9176 9.29211 38.4966 9.29211C36.2712 9.29211 34.0458 9.97581 31.8204 11.3432L30.6139 8.48776C31.6596 7.76384 32.9197 7.18739 34.3944 6.7584C35.8958 6.30261 37.3302 6.07471 38.6976 6.07471ZM37.4911 23.4487C38.9658 23.4487 40.1723 22.9527 41.1107 21.9606C42.0491 20.9418 42.5183 19.6414 42.5183 18.0595V17.0139H41.7944C39.7031 17.0139 38.0944 17.1077 36.9683 17.2954C35.8422 17.4831 35.0378 17.8048 34.5552 18.2606C34.0726 18.6896 33.8313 19.3197 33.8313 20.1508C33.8313 21.0893 34.1665 21.8802 34.8368 22.5237C35.5339 23.1403 36.4186 23.4487 37.4911 23.4487Z" fill="black"/>
<path d="M27.4335 23.3282C28.0502 23.3282 28.6534 23.288 29.2433 23.2075V26.3043C28.573 26.4115 27.6748 26.4652 26.9509 26.4652C24.4038 26.4652 22.5002 25.8485 21.24 24.6152C20.0067 23.355 19.39 21.5452 19.39 19.1858V9.69445H15.5693V6.55749H19.39V0.645508H23.452V6.55749H28.8411V9.69445H23.452V19.0249C23.452 21.8938 24.7791 23.3282 27.4335 23.3282Z" fill="black"/>
<path d="M48.6572 0.645508H52.7192V26.1836H48.6572V0.645508Z" fill="black"/>
<path d="M55.0557 0.645508H59.1176V26.1836H55.0557V0.645508Z" fill="black"/>
<path d="M80.989 6.59766L69.2857 33.4228H65.1835L68.602 25.701L60.3574 6.59766H64.6205L70.7335 21.5988L76.927 6.59766H80.989Z" fill="black"/>
<path d="M0 2.14389C0 1.31636 0.655982 0.645508 1.46518 0.645508H9.64574C10.4549 0.645508 11.1109 1.31636 11.1109 2.14389V3.12874L6.39154 6.39937C5.94435 6.70927 5.67756 7.21877 5.67756 7.76284C5.67756 8.30692 5.94435 8.81641 6.39154 9.12632L11.1109 12.3969V14.9285L6.39154 18.1992C5.94435 18.5091 5.67756 19.0186 5.67756 19.5626C5.67756 20.1067 5.94435 20.6162 6.39154 20.9261L11.1109 24.1967V25.3689C11.1109 26.1964 10.4549 26.8673 9.64574 26.8673H1.46518C0.655981 26.8673 0 26.1964 0 25.3689V2.14389Z" fill="black"/>
<path d="M99.184 0V26.048H97.532V22.1934C96.9551 23.5308 96.0898 24.5534 94.9361 25.2614C93.8085 25.9694 92.445 26.3234 90.8455 26.3234C89.1673 26.3234 87.6857 25.9169 86.4009 25.1041C85.116 24.265 84.1196 23.0981 83.4116 21.6035C82.7036 20.0826 82.3496 18.3257 82.3496 16.3329C82.3496 14.3662 82.7036 12.6487 83.4116 11.1803C84.1196 9.71189 85.116 8.57124 86.4009 7.75836C87.6857 6.94549 89.1673 6.53905 90.8455 6.53905C92.445 6.53905 93.8085 6.89305 94.9361 7.60103C96.0898 8.30902 96.9551 9.31856 97.532 10.6296V0H99.184ZM90.8455 24.7107C92.9956 24.7107 94.6476 23.9896 95.8014 22.5474C96.9551 21.1052 97.532 19.0599 97.532 16.4115C97.532 13.7894 96.9551 11.7572 95.8014 10.315C94.6476 8.87279 93.0088 8.15169 90.8848 8.15169C88.7608 8.15169 87.0957 8.87279 85.8895 10.315C84.7096 11.731 84.1196 13.7369 84.1196 16.3329C84.1196 18.9551 84.7096 21.0135 85.8895 22.5081C87.0957 23.9765 88.7477 24.7107 90.8455 24.7107Z" fill="black"/>
<path d="M103.921 26.048V7.01104H105.573V26.048H103.921ZM103.488 0H106.005V2.52057H103.488V0Z" fill="black"/>
<path d="M125.983 7.01104V25.1434C125.983 27.8705 125.341 29.9289 124.056 31.3186C122.771 32.7084 120.857 33.4032 118.313 33.4032C115.14 33.4032 112.453 32.4986 110.25 30.6893L111.037 29.3127C112.348 30.2566 113.528 30.8991 114.577 31.24C115.625 31.6071 116.884 31.7906 118.353 31.7906C120.319 31.7906 121.814 31.24 122.836 30.1386C123.859 29.0635 124.37 27.4771 124.37 25.3794V21.2495C123.82 22.613 122.954 23.6619 121.774 24.3961C120.621 25.1041 119.218 25.4581 117.566 25.4581C115.888 25.4581 114.393 25.0647 113.082 24.2781C111.797 23.4914 110.788 22.377 110.053 20.9348C109.345 19.4926 108.991 17.8406 108.991 15.9789C108.991 14.1171 109.345 12.4783 110.053 11.0623C110.788 9.62011 111.797 8.50569 113.082 7.71903C114.393 6.93238 115.888 6.53905 117.566 6.53905C119.192 6.53905 120.581 6.89305 121.735 7.60103C122.889 8.30902 123.754 9.31856 124.331 10.6296V7.01104H125.983ZM117.566 23.8454C119.69 23.8454 121.342 23.1505 122.522 21.7608C123.728 20.3448 124.331 18.4175 124.331 15.9789C124.331 13.5403 123.728 11.6261 122.522 10.2363C121.342 8.84657 119.69 8.15169 117.566 8.15169C115.468 8.15169 113.803 8.84657 112.571 10.2363C111.364 11.6261 110.761 13.5403 110.761 15.9789C110.761 18.4437 111.364 20.371 112.571 21.7608C113.803 23.1505 115.468 23.8454 117.566 23.8454Z" fill="black"/>
<path d="M130.716 26.048V7.01104H132.368V26.048H130.716ZM130.284 0H132.801V2.52057H130.284V0Z" fill="black"/>
<path d="M144.204 24.7501C144.807 24.7501 145.358 24.7107 145.856 24.6321L145.777 26.166C145.227 26.2447 144.637 26.284 144.007 26.284C142.041 26.284 140.52 25.7203 139.445 24.5927C138.396 23.439 137.871 21.905 137.871 19.9908V8.42702H134.056V7.01104H137.871V0H139.523V7.01104H145.266V8.42702H139.523V19.6368C139.523 21.315 139.917 22.5868 140.703 23.4521C141.49 24.3174 142.657 24.7501 144.204 24.7501Z" fill="black"/>
<path d="M154.842 6.53905C159.194 6.53905 161.371 8.8859 161.371 13.5796V26.048H159.679V22.5474C159.103 23.7536 158.263 24.6845 157.162 25.3401C156.087 25.9956 154.855 26.3234 153.465 26.3234C152.259 26.3234 151.144 26.0743 150.122 25.5761C149.125 25.0778 148.325 24.3961 147.722 23.5308C147.145 22.6392 146.857 21.669 146.857 20.6201C146.857 19.2042 147.224 18.116 147.958 17.3555C148.719 16.5689 149.951 16.0051 151.656 15.6642C153.386 15.3233 155.799 15.1529 158.893 15.1529H159.679V13.5009C159.679 11.6392 159.312 10.2888 158.578 9.44967C157.844 8.58435 156.677 8.15169 155.078 8.15169C153.845 8.15169 152.704 8.32213 151.656 8.66301C150.633 8.97768 149.558 9.50211 148.43 10.2363L147.644 8.82035C148.614 8.11236 149.728 7.5617 150.987 7.16838C152.272 6.74883 153.557 6.53905 154.842 6.53905ZM153.465 24.6714C154.645 24.6714 155.707 24.3961 156.651 23.8454C157.595 23.2685 158.329 22.4819 158.853 21.4855C159.404 20.489 159.679 19.3615 159.679 18.1029V16.6869H158.932C156.179 16.6869 154.081 16.8049 152.639 17.0409C151.197 17.2506 150.187 17.6309 149.61 18.1815C149.033 18.706 148.745 19.4926 148.745 20.5415C148.745 21.7477 149.191 22.7441 150.082 23.5308C150.974 24.2912 152.101 24.6714 153.465 24.6714Z" fill="black"/>
<path d="M166.031 26.048V0H167.683V26.048H166.031Z" fill="black"/>
</svg>
