<svg width="397" height="76" viewBox="0 0 397 76" fill="none" xmlns="http://www.w3.org/2000/svg">
<path d="M82.9214 12.4233C88.9337 12.4233 93.3815 13.9264 96.265 16.9325C99.2097 19.9387 100.682 24.5092 100.682 30.6442V58.4356H91.7557V50.9816C90.5901 53.6196 88.8416 55.6442 86.5104 57.0552C84.2404 58.4049 81.5717 59.0798 78.5042 59.0798C75.5594 59.0798 72.8601 58.4969 70.4061 57.3313C67.9521 56.1043 66.0196 54.4172 64.6085 52.27C63.2588 50.1227 62.584 47.7301 62.584 45.092C62.584 41.8405 63.4122 39.2945 65.0686 37.454C66.7864 35.5522 69.5778 34.2025 73.4429 33.4049C77.3693 32.6074 82.7374 32.2086 89.5472 32.2086H91.6637V29.5399C91.6637 26.1043 90.9275 23.6197 89.4551 22.0859C88.0441 20.5522 85.7128 19.7853 82.4613 19.7853C77.3693 19.7853 72.2772 21.3497 67.1852 24.4785L64.4245 17.9448C66.8171 16.2884 69.7005 14.9694 73.0748 13.9878C76.5104 12.9448 79.7926 12.4233 82.9214 12.4233ZM80.1607 52.1779C83.5349 52.1779 86.2956 51.043 88.4429 48.773C90.5901 46.4417 91.6637 43.4663 91.6637 39.8466V37.454H90.0073C85.222 37.454 81.541 37.6687 78.9643 38.0982C76.3877 38.5276 74.5472 39.2638 73.4429 40.3068C72.3386 41.2884 71.7864 42.7301 71.7864 44.6319C71.7864 46.7792 72.5533 48.589 74.087 50.0614C75.6821 51.4724 77.7067 52.1779 80.1607 52.1779Z" fill="white"/>
<path d="M57.1472 51.9018C58.5583 51.9018 59.9386 51.8098 61.2883 51.6258V58.7117C59.7546 58.9571 57.6994 59.0797 56.0429 59.0797C50.2147 59.0797 45.8589 57.6687 42.9755 54.8466C40.1534 51.9632 38.7423 47.8221 38.7423 42.4233V20.7055H30V13.5276H38.7423V0H48.0368V13.5276H60.3681V20.7055H48.0368V42.0552C48.0368 48.6196 51.0736 51.9018 57.1472 51.9018Z" fill="white"/>
<path d="M105.711 0H115.005V58.4356H105.711V0Z" fill="white"/>
<path d="M120.352 0H129.646V58.4356H120.352V0Z" fill="white"/>
<path d="M179.69 13.6196L152.911 75H143.524L151.346 57.3313L132.481 13.6196H142.236L156.224 47.9448L170.396 13.6196H179.69Z" fill="white"/>
<path d="M219 14.083V55.6041C219 62.3426 217.257 67.4265 213.772 70.8559C210.344 74.2853 205.261 76 198.523 76C194.863 76 191.378 75.4886 188.066 74.4658C184.813 73.5032 181.909 72.0893 179.353 70.2242L182.054 63.6361C184.842 65.5012 187.515 66.8248 190.071 67.607C192.685 68.4493 195.473 68.8705 198.436 68.8705C206.394 68.8705 210.373 64.689 210.373 56.3261V49.377C209.154 52.0243 207.295 54.1 204.797 55.6041C202.299 57.048 199.394 57.77 196.083 57.77C192.365 57.77 189.054 56.8675 186.149 55.0626C183.245 53.2576 180.979 50.7006 179.353 47.3916C177.784 44.0825 177 40.262 177 35.9301C177 31.5983 177.813 27.7778 179.44 24.4687C181.066 21.1596 183.303 18.6026 186.149 16.7977C189.054 14.9326 192.365 14 196.083 14C199.336 14 202.183 14.722 204.622 16.1659C207.12 17.6099 209.008 19.6555 210.286 22.3028V14.083H219ZM198.174 50.5502C201.95 50.5502 204.913 49.2567 207.062 46.6696C209.212 44.0825 210.286 40.5027 210.286 35.9301C210.286 31.4178 209.212 27.868 207.062 25.2809C204.971 22.6337 202.008 21.31 198.174 21.31C194.34 21.31 191.32 22.6036 189.112 25.1907C186.963 27.7778 185.888 31.3576 185.888 35.9301C185.888 40.5027 186.992 44.0825 189.199 46.6696C191.407 49.2567 194.398 50.5502 198.174 50.5502Z" fill="white"/>
<path d="M249.513 19.866L244.261 20.3826C240.128 20.7844 237.143 22.0473 235.306 24.1713C233.526 26.2953 232.636 28.9933 232.636 32.2653V58.6003H223.939V13.5802H232.378V20.8992C234.617 15.9624 239.18 13.2357 246.069 12.7191L248.91 12.5469L249.513 19.866Z" fill="white"/>
<path d="M270.5 59C266.4 59 262.784 58.0625 259.652 56.1874C256.577 54.3123 254.185 51.6509 252.477 48.2032C250.826 44.6949 250 40.6423 250 36.0454C250 31.3879 250.826 27.3353 252.477 23.8876C254.185 20.3794 256.577 17.6877 259.652 15.8126C262.784 13.9375 266.4 13 270.5 13C274.6 13 278.188 13.9375 281.263 15.8126C284.394 17.6877 286.786 20.3794 288.438 23.8876C290.146 27.3353 291 31.3879 291 36.0454C291 40.6423 290.146 44.6949 288.438 48.2032C286.786 51.6509 284.394 54.3123 281.263 56.1874C278.188 58.0625 274.6 59 270.5 59ZM270.5 51.7416C274.315 51.7416 277.219 50.4109 279.213 47.7495C281.263 45.0881 282.288 41.1867 282.288 36.0454C282.288 30.9645 281.263 27.0934 279.213 24.432C277.163 21.7101 274.258 20.3491 270.5 20.3491C266.742 20.3491 263.838 21.7101 261.788 24.432C259.738 27.0934 258.713 30.9645 258.713 36.0454C258.713 41.1867 259.709 45.0881 261.702 47.7495C263.752 50.4109 266.685 51.7416 270.5 51.7416Z" fill="white"/>
<path d="M333.319 13.5806V58.6007H324.88V51.7983C323.56 54.2093 321.723 56.0462 319.37 57.3091C317.073 58.572 314.49 59.2034 311.62 59.2034C301.402 59.2034 296.293 53.5778 296.293 42.3265V13.5806H304.99V42.2404C304.99 45.6273 305.679 48.1244 307.056 49.7317C308.434 51.339 310.558 52.1427 313.428 52.1427C316.815 52.1427 319.513 51.052 321.522 48.8706C323.589 46.6893 324.622 43.7903 324.622 40.1738V13.5806H333.319Z" fill="white"/>
<path d="M361.426 14C365.021 14 368.216 14.926 371.013 16.778C373.866 18.63 376.063 21.2343 377.603 24.5911C379.201 27.9478 380 31.8254 380 36.2239C380 40.5645 379.23 44.3842 377.689 47.6831C376.148 50.982 373.951 53.5285 371.098 55.3226C368.302 57.1167 365.078 58.0138 361.426 58.0138C358.287 58.0138 355.52 57.3482 353.123 56.0171C350.727 54.6281 348.9 52.6603 347.645 50.1138V75H339V14.0417H347.645V21.9867C348.9 19.4402 350.727 17.4725 353.123 16.0835C355.52 14.6945 358.287 14 361.426 14ZM359.372 51.0688C363.138 51.0688 366.048 49.7955 368.102 47.249C370.157 44.6447 371.184 40.9696 371.184 36.2239C371.184 31.4203 370.128 27.6874 368.017 25.0251C365.962 22.3629 363.081 21.0318 359.372 21.0318C355.605 21.0318 352.695 22.334 350.641 24.9383C348.644 27.5427 347.645 31.2467 347.645 36.0503C347.645 40.8539 348.644 44.5579 350.641 47.1622C352.695 49.7666 355.605 51.0688 359.372 51.0688Z" fill="white"/>
<path d="M382.905 15.272H380.145V14H387.213V15.272H384.453V22.46H382.905V15.272Z" fill="white"/>
<path d="M396.528 14V22.46H395.16V16.868L392.928 21.092H391.896L389.652 16.928L389.664 22.46H388.296V14H389.52L392.424 19.532L395.316 14H396.528Z" fill="white"/>
<path d="M0 3.37143C0 1.50944 1.47598 0 3.2967 0H21.7033C23.524 0 25 1.50944 25 3.37143V5.58738L14.3812 12.9464C13.375 13.6437 12.7747 14.7901 12.7747 16.0143C12.7747 17.2385 13.375 18.3849 14.3812 19.0822L25 26.4412V32.1374L14.3812 39.4964C13.375 40.1937 12.7747 41.3401 12.7747 42.5643C12.7747 43.7885 13.375 44.9349 14.3812 45.6322L25 52.9912V55.6286C25 57.4906 23.524 59 21.7033 59H3.2967C1.47598 59 0 57.4906 0 55.6286V3.37143Z" fill="white"/>
</svg>
