<svg width="144" height="33" viewBox="0 0 144 33" fill="none" xmlns="http://www.w3.org/2000/svg">
<path d="M38.6976 5.42932C41.3252 5.42932 43.269 6.08621 44.5292 7.39998C45.8161 8.71375 46.4596 10.7112 46.4596 13.3924V25.5381H42.5585V22.2805C42.0491 23.4334 41.285 24.3182 40.2661 24.9348C39.2741 25.5247 38.1078 25.8196 36.7672 25.8196C35.4802 25.8196 34.3005 25.5649 33.2281 25.0555C32.1556 24.5192 31.311 23.7819 30.6944 22.8435C30.1045 21.9051 29.8096 20.8594 29.8096 19.7065C29.8096 18.2855 30.1715 17.1728 30.8954 16.3685C31.6462 15.5373 32.8661 14.9475 34.5552 14.5989C36.2712 14.2504 38.6172 14.0761 41.5933 14.0761H42.5183V12.9098C42.5183 11.4083 42.1966 10.3225 41.5531 9.65216C40.9364 8.98187 39.9176 8.64672 38.4966 8.64672C36.2712 8.64672 34.0458 9.33042 31.8204 10.6978L30.6139 7.84237C31.6596 7.11846 32.9197 6.54201 34.3944 6.11302C35.8958 5.65722 37.3302 5.42932 38.6976 5.42932ZM37.4911 22.8033C38.9658 22.8033 40.1723 22.3073 41.1107 21.3152C42.0491 20.2964 42.5183 18.996 42.5183 17.4141V16.3685H41.7944C39.7031 16.3685 38.0944 16.4623 36.9683 16.65C35.8422 16.8377 35.0378 17.1594 34.5552 17.6152C34.0726 18.0442 33.8313 18.6743 33.8313 19.5055C33.8313 20.4439 34.1665 21.2348 34.8368 21.8783C35.5339 22.495 36.4186 22.8033 37.4911 22.8033Z" fill="white"/>
<path d="M27.4333 22.6827C28.0499 22.6827 28.6532 22.6425 29.2431 22.562V25.6588C28.5728 25.766 27.6746 25.8197 26.9507 25.8197C24.4035 25.8197 22.4999 25.203 21.2398 23.9697C20.0064 22.7095 19.3898 20.8997 19.3898 18.5403V9.04894H15.5691V5.91198H19.3898V0H23.4517V5.91198H28.8409V9.04894H23.4517V18.3794C23.4517 21.2483 24.7789 22.6827 27.4333 22.6827Z" fill="white"/>
<path d="M48.6572 0H52.7192V25.5381H48.6572V0Z" fill="white"/>
<path d="M55.0554 0H59.1174V25.5381H55.0554V0Z" fill="white"/>
<path d="M80.9883 5.95215L69.285 32.7772H65.1828L68.6013 25.0555L60.3567 5.95215H64.6197L70.7328 20.9533L76.9263 5.95215H80.9883Z" fill="white"/>
<path d="M0 1.49839C0 0.67085 0.655982 0 1.46518 0H9.64574C10.4549 0 11.1109 0.67085 11.1109 1.49839V2.48323L6.39154 5.75386C5.94435 6.06377 5.67756 6.57326 5.67756 7.11734C5.67756 7.66141 5.94435 8.1709 6.39154 8.48081L11.1109 11.7514V14.283L6.39154 17.5537C5.94435 17.8636 5.67756 18.3731 5.67756 18.9171C5.67756 19.4612 5.94435 19.9707 6.39154 20.2806L11.1109 23.5512V24.7234C11.1109 25.5509 10.4549 26.2218 9.64574 26.2218H1.46518C0.655981 26.2218 0 25.5509 0 24.7234V1.49839Z" fill="#00C1FF"/>
<path d="M116.569 25.9999V6.63995H118.209V11.3599H117.769C118.089 10.2666 118.556 9.34661 119.169 8.59995C119.809 7.85328 120.569 7.29328 121.449 6.91995C122.329 6.51995 123.302 6.31995 124.369 6.31995C126.102 6.31995 127.476 6.74661 128.489 7.59995C129.529 8.42661 130.196 9.69328 130.489 11.3999H129.889C130.316 9.85328 131.142 8.62661 132.369 7.71995C133.622 6.78661 135.116 6.31995 136.849 6.31995C138.262 6.31995 139.436 6.59995 140.369 7.15995C141.302 7.69328 142.009 8.50661 142.489 9.59995C142.969 10.6666 143.209 12.0266 143.209 13.6799V25.9999H141.529V13.8399C141.529 11.7866 141.156 10.2799 140.409 9.31995C139.689 8.35995 138.476 7.87995 136.769 7.87995C135.542 7.87995 134.476 8.17328 133.569 8.75995C132.662 9.31995 131.956 10.1333 131.449 11.1999C130.969 12.2399 130.729 13.4666 130.729 14.8799V25.9999H129.049V13.8399C129.049 11.7866 128.676 10.2799 127.929 9.31995C127.209 8.35995 125.996 7.87995 124.289 7.87995C123.062 7.87995 121.996 8.17328 121.089 8.75995C120.182 9.31995 119.476 10.1333 118.969 11.1999C118.489 12.2399 118.249 13.4666 118.249 14.8799V25.9999H116.569Z" fill="white"/>
<path d="M103.003 25.9999V6.63991H104.643V11.1599H104.243C104.777 9.58658 105.617 8.41325 106.763 7.63991C107.91 6.83991 109.417 6.37325 111.283 6.23991L112.123 6.15991L112.323 7.67991L110.963 7.83991C108.99 8.02658 107.443 8.69325 106.323 9.83991C105.23 10.9866 104.683 12.5066 104.683 14.3999V25.9999H103.003Z" fill="white"/>
<path d="M91.9601 26.3199C90.1201 26.3199 88.5335 25.8933 87.2001 25.0399C85.8935 24.1866 84.8801 22.9999 84.1601 21.4799C83.4668 19.9599 83.1201 18.1866 83.1201 16.1599C83.1201 14.1333 83.4668 12.3866 84.1601 10.9199C84.8801 9.45328 85.8935 8.31995 87.2001 7.51995C88.5335 6.71995 90.1201 6.31995 91.9601 6.31995C93.1335 6.31995 94.2801 6.55995 95.4001 7.03995C96.5201 7.49328 97.4535 8.13328 98.2001 8.95995L97.4001 10.2799C96.5468 9.42661 95.6401 8.81328 94.6801 8.43995C93.7201 8.06661 92.8001 7.87995 91.9201 7.87995C89.6535 7.87995 87.9068 8.59995 86.6801 10.0399C85.4535 11.4799 84.8401 13.5333 84.8401 16.1999C84.8401 18.8666 85.4535 20.9599 86.6801 22.4799C87.9068 23.9999 89.6535 24.7599 91.9201 24.7599C92.8001 24.7599 93.7201 24.5733 94.6801 24.1999C95.6401 23.8266 96.5468 23.2133 97.4001 22.3599L98.2001 23.6799C97.4535 24.5066 96.5068 25.1599 95.3601 25.6399C94.2135 26.0933 93.0801 26.3199 91.9601 26.3199Z" fill="white"/>
</svg>
