<svg width="137" height="34" viewBox="0 0 137 34" fill="none" xmlns="http://www.w3.org/2000/svg">
<g clip-path="url(#clip0_564_4199)">
<path d="M83.6167 6.53967L82.5068 9.07917C85.761 9.31891 88.3361 12.036 88.3361 15.348C88.3361 18.66 85.5124 21.639 82.045 21.639C80.389 21.639 78.8884 20.9908 77.7652 19.943L76.6553 22.4825C78.1559 23.6191 80.0205 24.3028 82.045 24.3028C86.982 24.3028 90.9999 20.2849 90.9999 15.348C90.9999 10.9483 87.8077 7.28554 83.6167 6.53967Z" fill="#4EEECA"/>
<path d="M80.8333 20.1118V16.4402H77.2771V14.136H80.8333V10.5842H83.2573V14.136H86.8091V16.4402H83.2573V20.1118H80.8333Z" fill="white"/>
<path d="M36.8138 5.51408C39.482 5.51408 41.4577 6.18003 42.7363 7.51638C44.0416 8.85272 44.6987 10.8816 44.6987 13.6032V25.941H40.734V22.6335C40.2146 23.8055 39.4421 24.7024 38.4032 25.3283C37.3954 25.9277 36.21 26.2252 34.847 26.2252C33.484 26.2252 32.343 25.9677 31.2509 25.4482C30.1632 24.9021 29.3019 24.1563 28.6759 23.2017C28.0765 22.2472 27.7791 21.1861 27.7791 20.0141C27.7791 18.5712 28.1475 17.439 28.8801 16.6221C29.6437 15.7786 30.8824 15.1793 32.5961 14.8241C34.3409 14.4689 36.7206 14.2913 39.744 14.2913H40.6852V13.1059C40.6852 11.5787 40.3566 10.4776 39.704 9.79837C39.078 9.1191 38.0436 8.77724 36.6007 8.77724C34.3409 8.77724 32.0811 9.46983 29.8169 10.8595L28.5915 7.96034C29.6526 7.22336 30.9357 6.63732 32.4318 6.20223C33.9591 5.74051 35.4153 5.50964 36.8049 5.50964L36.8138 5.51408ZM35.5884 23.1662C37.0846 23.1662 38.3144 22.6645 39.2645 21.6567C40.219 20.6223 40.6941 19.2993 40.6941 17.6921V16.631H39.9571C37.8305 16.631 36.1967 16.7243 35.0557 16.9152C33.9102 17.1061 33.0933 17.4346 32.605 17.8963C32.1166 18.3314 31.868 18.9707 31.868 19.8187C31.868 20.7732 32.2098 21.5768 32.8891 22.2295C33.5995 22.8555 34.4963 23.1707 35.584 23.1707L35.5884 23.1662Z" fill="white"/>
<path d="M25.3726 23.0419C25.9986 23.0419 26.6112 23.002 27.2106 22.9176V26.0653C26.5313 26.1763 25.6167 26.2296 24.8798 26.2296C22.2914 26.2296 20.3602 25.6036 19.0771 24.3516C17.8251 23.073 17.1991 21.235 17.1991 18.8375V9.19456H13.3188V6.00688H17.1991V0H21.3236V6.00688H26.7977V9.19456H21.3236V18.6733C21.3236 21.5857 22.6732 23.0463 25.3681 23.0463L25.3726 23.0419Z" fill="white"/>
<path d="M46.9316 0H51.0561V25.9455H46.9316V0Z" fill="white"/>
<path d="M53.4316 0H57.5561V25.9455H53.4316V0Z" fill="white"/>
<path d="M79.7764 6.04688L67.887 33.2976H63.7181L67.1899 25.4527L58.8123 6.04688H63.1454L69.3565 21.2883L75.6475 6.04688H79.772H79.7764Z" fill="white"/>
<path d="M0 1.49617C0 0.670391 0.657072 0 1.46509 0H9.63853C10.4466 0 11.1036 0.670391 11.1036 1.49617V2.48178L6.38869 5.74938C5.94028 6.06016 5.6739 6.56628 5.6739 7.11236C5.6739 7.654 5.94028 8.16456 6.38869 8.47534L11.1036 11.7429V14.2736L6.38869 17.5412C5.94028 17.8519 5.6739 18.3581 5.6739 18.9041C5.6739 19.4458 5.94028 19.9563 6.38869 20.2671L11.1036 23.5347V24.7068C11.1036 25.5326 10.4466 26.203 9.63853 26.203H1.46509C0.657072 26.203 0 25.5326 0 24.7068V1.49617Z" fill="#4EEECA"/>
</g>
<path d="M111.301 25V6.60795H112.859V11.092H112.441C112.745 10.0533 113.189 9.17929 113.771 8.46995C114.379 7.76062 115.101 7.22862 115.937 6.87395C116.773 6.49396 117.698 6.30396 118.711 6.30396C120.358 6.30396 121.663 6.70929 122.625 7.51996C123.613 8.30529 124.247 9.50862 124.525 11.13H123.955C124.361 9.66062 125.146 8.49529 126.311 7.63396C127.502 6.74729 128.921 6.30396 130.567 6.30396C131.91 6.30396 133.025 6.56995 133.911 7.10195C134.798 7.60862 135.469 8.38129 135.925 9.41995C136.381 10.4333 136.609 11.7253 136.609 13.296V25H135.013V13.448C135.013 11.4973 134.659 10.066 133.949 9.15395C133.265 8.24196 132.113 7.78596 130.491 7.78596C129.326 7.78596 128.313 8.06462 127.451 8.62195C126.59 9.15395 125.919 9.92662 125.437 10.94C124.981 11.928 124.753 13.0933 124.753 14.436V25H123.157V13.448C123.157 11.4973 122.803 10.066 122.093 9.15395C121.409 8.24196 120.257 7.78596 118.635 7.78596C117.47 7.78596 116.457 8.06462 115.595 8.62195C114.734 9.15395 114.063 9.92662 113.581 10.94C113.125 11.928 112.897 13.0933 112.897 14.436V25H111.301Z" fill="white"/>
<path d="M101.968 25.304C101.107 25.304 100.245 25.2026 99.384 25C98.548 24.8226 97.7627 24.5566 97.028 24.202C96.3187 23.822 95.698 23.3786 95.166 22.872L95.926 21.58C96.534 22.112 97.1673 22.5426 97.826 22.872C98.51 23.2013 99.2067 23.442 99.916 23.594C100.625 23.746 101.347 23.822 102.082 23.822C103.729 23.822 104.983 23.5053 105.844 22.872C106.731 22.2386 107.174 21.3773 107.174 20.288C107.174 19.4266 106.883 18.7553 106.3 18.274C105.743 17.7673 104.831 17.362 103.564 17.058L100.41 16.298C98.814 15.918 97.636 15.3353 96.876 14.55C96.1413 13.7646 95.774 12.7513 95.774 11.51C95.774 10.4713 96.04 9.55929 96.572 8.77395C97.1293 7.98862 97.902 7.38062 98.89 6.94995C99.9033 6.51929 101.069 6.30396 102.386 6.30396C103.222 6.30396 104.02 6.40529 104.78 6.60795C105.54 6.78529 106.237 7.06395 106.87 7.44395C107.529 7.79862 108.073 8.24195 108.504 8.77395L107.744 10.066C107.263 9.55929 106.731 9.14129 106.148 8.81195C105.565 8.45729 104.957 8.20396 104.324 8.05196C103.691 7.87462 103.032 7.78596 102.348 7.78596C100.803 7.78596 99.5993 8.12796 98.738 8.81195C97.8767 9.47062 97.446 10.3573 97.446 11.472C97.446 12.3333 97.712 13.03 98.244 13.562C98.776 14.094 99.6247 14.4993 100.79 14.778L103.944 15.538C105.591 15.9433 106.819 16.5133 107.63 17.248C108.441 17.9826 108.846 18.9706 108.846 20.212C108.846 21.2506 108.555 22.15 107.972 22.91C107.415 23.67 106.617 24.2653 105.578 24.696C104.565 25.1013 103.361 25.304 101.968 25.304Z" fill="white"/>
<defs>
<clipPath id="clip0_564_4199">
<rect width="91" height="33.2976" fill="white"/>
</clipPath>
</defs>
</svg>
