<svg width="64" height="28" viewBox="0 0 64 28" fill="none" xmlns="http://www.w3.org/2000/svg">
<g filter="url(#filter0_dd_4398_22575)">
<path d="M1.99707 13.3315C1.99707 6.70404 7.36965 1.33145 13.9971 1.33145H49.0747C55.7021 1.33145 61.0747 6.70404 61.0747 13.3315V13.3315C61.0747 19.9589 55.7021 25.3315 49.0747 25.3315H13.9971C7.36966 25.3315 1.99707 19.9589 1.99707 13.3315V13.3315Z" fill="#181D27"/>
<g clip-path="url(#clip0_4398_22575)">
<rect x="9.98584" y="6.67377" width="13.3153" height="13.3153" rx="6.65767" fill="#FE5E01"/>
<rect x="17.8918" y="6.67383" width="5.40936" height="13.3153" fill="#983901"/>
<path d="M15.7073 7.4347C15.7073 7.01448 16.0453 6.67383 16.4623 6.67383L21.4329 6.67383C21.4329 6.67383 21.4329 7.39464 21.4329 7.93481L18.633 9.84688L18.633 10.7291L21.4329 12.6412L21.4329 13.9267L18.633 15.8388L18.633 16.721L21.4329 18.6331L21.4329 19.9892L16.4623 19.9892C16.0453 19.9892 15.7073 19.6485 15.7073 19.2283L15.7073 7.4347Z" fill="#B24301"/>
<path d="M12.8467 7.4347C12.8467 7.01448 13.1847 6.67383 13.6017 6.67383L18.5723 6.67383C18.5723 6.67383 18.5723 7.39464 18.5723 7.93481L15.7724 9.84688L15.7724 10.7291L18.5723 12.6412L18.5723 13.9267L15.7724 15.8388L15.7724 16.721L18.5723 18.6331L18.5723 19.9892L13.6017 19.9892C13.1847 19.9892 12.8467 19.6485 12.8467 19.2283L12.8467 7.4347Z" fill="#CC4C00"/>
<path d="M9.98584 7.43464C9.98584 7.01442 10.3239 6.67377 10.7409 6.67377L15.7114 6.67377C15.7114 6.67377 15.7114 7.39458 15.7114 7.93475L12.9116 9.84682L12.9116 10.729L15.7114 12.6411L15.7114 13.9267L12.9116 15.8387L12.9116 16.7209L15.7114 18.633L15.7114 19.9891L10.7409 19.9891C10.3239 19.9891 9.98584 19.6485 9.98584 19.2282L9.98584 7.43464Z" fill="#FF5E00"/>
</g>
<path d="M27.5031 16.6573H26.1925L28.5788 9.87894H30.0947L32.4843 16.6573H31.1736L29.3632 11.269H29.3103L27.5031 16.6573ZM27.5462 13.9996H31.1207V14.9859H27.5462V13.9996ZM35.056 16.7467C34.6566 16.7467 34.2991 16.644 33.9836 16.4388C33.6681 16.2336 33.4187 15.9358 33.2356 15.5452C33.0525 15.1547 32.9609 14.6803 32.9609 14.122C32.9609 13.5572 33.0536 13.0806 33.2389 12.6922C33.4265 12.3017 33.6791 12.0071 33.9968 11.8085C34.3146 11.6077 34.6687 11.5073 35.0593 11.5073C35.3571 11.5073 35.6021 11.5581 35.794 11.6596C35.986 11.7589 36.1382 11.8791 36.2508 12.0203C36.3633 12.1594 36.4505 12.2906 36.5122 12.4142H36.5619V9.87894H37.7633V16.6573H36.5851V15.8563H36.5122C36.4505 15.9799 36.3611 16.1112 36.2442 16.2502C36.1272 16.387 35.9728 16.5039 35.7808 16.601C35.5888 16.6981 35.3472 16.7467 35.056 16.7467ZM35.3902 15.7637C35.644 15.7637 35.8602 15.6953 36.039 15.5585C36.2177 15.4194 36.3534 15.2264 36.4461 14.9793C36.5387 14.7321 36.5851 14.4442 36.5851 14.1154C36.5851 13.7866 36.5387 13.5009 36.4461 13.2582C36.3556 13.0155 36.221 12.8268 36.0423 12.6922C35.8657 12.5576 35.6484 12.4903 35.3902 12.4903C35.1233 12.4903 34.9004 12.5598 34.7217 12.6988C34.543 12.8379 34.4084 13.0298 34.3179 13.2747C34.2274 13.5197 34.1822 13.7999 34.1822 14.1154C34.1822 14.4331 34.2274 14.7167 34.3179 14.966C34.4106 15.2131 34.5463 15.4084 34.725 15.5518C34.9059 15.6931 35.1277 15.7637 35.3902 15.7637ZM41.2576 16.7566C40.7611 16.7566 40.3309 16.6474 39.9668 16.4289C39.6027 16.2105 39.3203 15.9049 39.1195 15.5121C38.9209 15.1194 38.8216 14.6604 38.8216 14.1353C38.8216 13.6101 38.9209 13.1501 39.1195 12.7551C39.3203 12.3601 39.6027 12.0534 39.9668 11.835C40.3309 11.6166 40.7611 11.5073 41.2576 11.5073C41.754 11.5073 42.1843 11.6166 42.5484 11.835C42.9125 12.0534 43.1938 12.3601 43.3924 12.7551C43.5932 13.1501 43.6935 13.6101 43.6935 14.1353C43.6935 14.6604 43.5932 15.1194 43.3924 15.5121C43.1938 15.9049 42.9125 16.2105 42.5484 16.4289C42.1843 16.6474 41.754 16.7566 41.2576 16.7566ZM41.2642 15.7968C41.5334 15.7968 41.7585 15.7228 41.9394 15.575C42.1203 15.425 42.2549 15.2242 42.3432 14.9726C42.4336 14.7211 42.4789 14.4409 42.4789 14.132C42.4789 13.8208 42.4336 13.5395 42.3432 13.288C42.2549 13.0342 42.1203 12.8323 41.9394 12.6823C41.7585 12.5323 41.5334 12.4572 41.2642 12.4572C40.9884 12.4572 40.7589 12.5323 40.5758 12.6823C40.3948 12.8323 40.2591 13.0342 40.1687 13.288C40.0804 13.5395 40.0363 13.8208 40.0363 14.132C40.0363 14.4409 40.0804 14.7211 40.1687 14.9726C40.2591 15.2242 40.3948 15.425 40.5758 15.575C40.7589 15.7228 40.9884 15.7968 41.2642 15.7968ZM44.7105 16.6573V11.5735H45.8722V12.4208H45.9251C46.0178 12.1274 46.1767 11.9012 46.4017 11.7423C46.629 11.5813 46.8883 11.5007 47.1795 11.5007C47.2457 11.5007 47.3196 11.504 47.4013 11.5106C47.4851 11.5151 47.5546 11.5228 47.6098 11.5338V12.636C47.559 12.6183 47.4785 12.6029 47.3682 12.5896C47.2601 12.5742 47.1553 12.5665 47.0538 12.5665C46.8353 12.5665 46.6389 12.6139 46.4646 12.7088C46.2925 12.8014 46.1568 12.9305 46.0575 13.096C45.9582 13.2615 45.9086 13.4524 45.9086 13.6686V16.6573H44.7105ZM49.7777 16.7599C49.4555 16.7599 49.1654 16.7025 48.9072 16.5878C48.6513 16.4708 48.4483 16.2987 48.2982 16.0715C48.1504 15.8442 48.0765 15.564 48.0765 15.2308C48.0765 14.9439 48.1294 14.7067 48.2353 14.5192C48.3412 14.3316 48.4858 14.1816 48.6689 14.0691C48.852 13.9565 49.0584 13.8716 49.2878 13.8142C49.5195 13.7546 49.7589 13.7116 50.006 13.6851C50.3039 13.6543 50.5455 13.6267 50.7309 13.6024C50.9162 13.5759 51.0508 13.5362 51.1347 13.4832C51.2207 13.4281 51.2637 13.3431 51.2637 13.2284V13.2085C51.2637 12.9592 51.1898 12.7661 51.042 12.6293C50.8942 12.4925 50.6812 12.4241 50.4032 12.4241C50.1097 12.4241 49.877 12.4881 49.7049 12.6161C49.535 12.7441 49.4202 12.8952 49.3606 13.0695L48.242 12.9107C48.3302 12.6018 48.4758 12.3436 48.6788 12.1362C48.8818 11.9266 49.1301 11.7699 49.4235 11.6662C49.717 11.5603 50.0413 11.5073 50.3966 11.5073C50.6415 11.5073 50.8853 11.536 51.128 11.5934C51.3708 11.6508 51.5925 11.7456 51.7933 11.878C51.9941 12.0082 52.1552 12.1858 52.2765 12.4109C52.4001 12.636 52.4619 12.9173 52.4619 13.2549V16.6573H51.3101V15.9589H51.2704C51.1976 16.1001 51.0949 16.2325 50.9626 16.3561C50.8324 16.4775 50.668 16.5756 50.4694 16.6507C50.273 16.7235 50.0425 16.7599 49.7777 16.7599ZM50.0888 15.8795C50.3293 15.8795 50.5378 15.8321 50.7143 15.7372C50.8908 15.6401 51.0265 15.5121 51.1214 15.3533C51.2185 15.1944 51.2671 15.0212 51.2671 14.8336V14.2346C51.2295 14.2655 51.1656 14.2941 51.0751 14.3206C50.9868 14.3471 50.8875 14.3703 50.7772 14.3901C50.6669 14.41 50.5577 14.4276 50.4495 14.4431C50.3414 14.4585 50.2477 14.4718 50.1682 14.4828C49.9895 14.5071 49.8295 14.5468 49.6883 14.6019C49.5471 14.6571 49.4357 14.7343 49.354 14.8336C49.2724 14.9307 49.2316 15.0565 49.2316 15.2109C49.2316 15.4316 49.3121 15.5982 49.4732 15.7107C49.6343 15.8232 49.8395 15.8795 50.0888 15.8795Z" fill="white"/>
</g>
<defs>
<filter id="filter0_dd_4398_22575" x="-0.000119925" y="-8.76188e-06" width="63.072" height="27.9944" filterUnits="userSpaceOnUse" color-interpolation-filters="sRGB">
<feFlood flood-opacity="0" result="BackgroundImageFix"/>
<feColorMatrix in="SourceAlpha" type="matrix" values="0 0 0 0 0 0 0 0 0 0 0 0 0 0 0 0 0 0 127 0" result="hardAlpha"/>
<feMorphology radius="0.66573" operator="erode" in="SourceAlpha" result="effect1_dropShadow_4398_22575"/>
<feOffset dy="0.66573"/>
<feGaussianBlur stdDeviation="0.66573"/>
<feComposite in2="hardAlpha" operator="out"/>
<feColorMatrix type="matrix" values="0 0 0 0 0.0392157 0 0 0 0 0.0496732 0 0 0 0 0.0705882 0 0 0 0.1 0"/>
<feBlend mode="normal" in2="BackgroundImageFix" result="effect1_dropShadow_4398_22575"/>
<feColorMatrix in="SourceAlpha" type="matrix" values="0 0 0 0 0 0 0 0 0 0 0 0 0 0 0 0 0 0 127 0" result="hardAlpha"/>
<feOffset dy="0.66573"/>
<feGaussianBlur stdDeviation="0.998595"/>
<feComposite in2="hardAlpha" operator="out"/>
<feColorMatrix type="matrix" values="0 0 0 0 0.0392157 0 0 0 0 0.0496732 0 0 0 0 0.0705882 0 0 0 0.1 0"/>
<feBlend mode="normal" in2="effect1_dropShadow_4398_22575" result="effect2_dropShadow_4398_22575"/>
<feBlend mode="normal" in="SourceGraphic" in2="effect2_dropShadow_4398_22575" result="shape"/>
</filter>
<clipPath id="clip0_4398_22575">
<rect x="9.98584" y="6.67377" width="13.3153" height="13.3153" rx="6.65767" fill="white"/>
</clipPath>
</defs>
</svg>
