<svg width="326" height="35" viewBox="0 0 326 35" fill="none" xmlns="http://www.w3.org/2000/svg">
<path d="M38.6976 7.52332C41.3252 7.52332 43.269 8.1802 44.5292 9.49397C45.8161 10.8077 46.4596 12.8052 46.4596 15.4864V27.6321H42.5585V24.3745C42.0491 25.5274 41.285 26.4121 40.2661 27.0288C39.2741 27.6187 38.1078 27.9136 36.7672 27.9136C35.4802 27.9136 34.3005 27.6589 33.2281 27.1495C32.1556 26.6132 31.311 25.8759 30.6944 24.9375C30.1045 23.9991 29.8096 22.9534 29.8096 21.8005C29.8096 20.3795 30.1715 19.2668 30.8954 18.4625C31.6462 17.6313 32.8661 17.0415 34.5552 16.6929C36.2712 16.3444 38.6172 16.1701 41.5933 16.1701H42.5183V15.0038C42.5183 13.5023 42.1966 12.4164 41.5531 11.7462C40.9364 11.0759 39.9176 10.7407 38.4966 10.7407C36.2712 10.7407 34.0458 11.4244 31.8204 12.7918L30.6139 9.93637C31.6596 9.21245 32.9197 8.636 34.3944 8.20701C35.8958 7.75121 37.3302 7.52332 38.6976 7.52332ZM37.4911 24.8973C38.9658 24.8973 40.1723 24.4013 41.1107 23.4092C42.0491 22.3904 42.5183 21.09 42.5183 19.5081V18.4625H41.7944C39.7031 18.4625 38.0944 18.5563 36.9683 18.744C35.8422 18.9317 35.0378 19.2534 34.5552 19.7092C34.0726 20.1382 33.8313 20.7683 33.8313 21.5995C33.8313 22.5379 34.1665 23.3288 34.8368 23.9723C35.5339 24.589 36.4186 24.8973 37.4911 24.8973Z" fill="black"/>
<path d="M27.4333 24.7767C28.0499 24.7767 28.6532 24.7365 29.2431 24.656V27.7528C28.5728 27.86 27.6746 27.9137 26.9507 27.9137C24.4035 27.9137 22.4999 27.297 21.2398 26.0636C20.0064 24.8035 19.3898 22.9937 19.3898 20.6343V11.1429H15.5691V8.00597H19.3898V2.09399H23.4517V8.00597H28.8409V11.1429H23.4517V20.4734C23.4517 23.3423 24.7789 24.7767 27.4333 24.7767Z" fill="black"/>
<path d="M48.6572 2.09399H52.7192V27.6321H48.6572V2.09399Z" fill="black"/>
<path d="M55.0554 2.09399H59.1174V27.6321H55.0554V2.09399Z" fill="black"/>
<path d="M80.9883 8.04614L69.285 34.8712H65.1828L68.6013 27.1495L60.3567 8.04614H64.6197L70.7328 23.0473L76.9263 8.04614H80.9883Z" fill="black"/>
<path d="M0 3.59238C0 2.76484 0.655982 2.09399 1.46518 2.09399H9.64574C10.4549 2.09399 11.1109 2.76484 11.1109 3.59238V4.57723L6.39154 7.84785C5.94435 8.15776 5.67756 8.66725 5.67756 9.21133C5.67756 9.75541 5.94435 10.2649 6.39154 10.5748L11.1109 13.8454V16.377L6.39154 19.6476C5.94435 19.9576 5.67756 20.467 5.67756 21.0111C5.67756 21.5552 5.94435 22.0647 6.39154 22.3746L11.1109 25.6452V26.8174C11.1109 27.6449 10.4549 28.3158 9.64574 28.3158H1.46518C0.655981 28.3158 0 27.6449 0 26.8174V3.59238Z" fill="black"/>
<path d="M311.303 27.094V8.70195H312.861V13.1859H312.443C312.949 11.5899 313.823 10.3993 315.065 9.61395C316.306 8.80328 317.737 8.39795 319.359 8.39795C320.828 8.39795 322.044 8.65128 323.007 9.15795C323.995 9.66462 324.729 10.4373 325.211 11.4759C325.692 12.5146 325.933 13.8193 325.933 15.3899V27.094H324.337V15.5419C324.337 14.2499 324.159 13.1859 323.805 12.3499C323.475 11.5139 322.943 10.8933 322.209 10.4879C321.474 10.0826 320.524 9.87995 319.359 9.87995C318.067 9.87995 316.927 10.1586 315.939 10.7159C314.976 11.2479 314.229 12.0206 313.697 13.0339C313.165 14.0219 312.899 15.1873 312.899 16.5299V27.094H311.303Z" fill="black"/>
<path d="M300.127 27.398C298.455 27.398 296.999 27.0053 295.757 26.2199C294.541 25.4346 293.591 24.3326 292.907 22.9139C292.249 21.4953 291.919 19.8233 291.919 17.8979C291.919 15.9726 292.249 14.3006 292.907 12.8819C293.591 11.4633 294.541 10.3613 295.757 9.57595C296.999 8.79062 298.455 8.39795 300.127 8.39795C301.799 8.39795 303.243 8.79062 304.459 9.57595C305.701 10.3613 306.651 11.4633 307.309 12.8819C307.993 14.3006 308.335 15.9726 308.335 17.8979C308.335 19.8233 307.993 21.4953 307.309 22.9139C306.651 24.3326 305.701 25.4346 304.459 26.2199C303.243 27.0053 301.799 27.398 300.127 27.398ZM300.127 25.916C302.154 25.916 303.75 25.2193 304.915 23.826C306.106 22.4073 306.701 20.4313 306.701 17.8979C306.701 15.3646 306.106 13.4013 304.915 12.0079C303.75 10.5893 302.154 9.87995 300.127 9.87995C298.126 9.87995 296.53 10.5893 295.339 12.0079C294.149 13.4013 293.553 15.3646 293.553 17.8979C293.553 20.4313 294.149 22.4073 295.339 23.826C296.53 25.2193 298.126 25.916 300.127 25.916Z" fill="black"/>
<path d="M286.945 3.57198V1.17798H289.377V3.57198H286.945ZM287.363 27.094V8.70198H288.959V27.094H287.363Z" fill="black"/>
<path d="M283.931 27.398C282.005 27.398 280.561 26.8533 279.599 25.764C278.636 24.6747 278.155 23.142 278.155 21.166V10.07H274.469V8.70199H278.155V2.96399H279.751V8.70199H285.793V10.07H279.751V20.824C279.751 22.4707 280.08 23.7373 280.739 24.624C281.397 25.4853 282.499 25.916 284.045 25.916C284.501 25.916 284.931 25.8653 285.337 25.764C285.767 25.6373 286.122 25.5233 286.401 25.422L286.781 26.752C286.553 26.904 286.147 27.0433 285.565 27.17C284.982 27.322 284.437 27.398 283.931 27.398Z" fill="black"/>
<path d="M271.28 3.57198V1.17798H273.712V3.57198H271.28ZM271.698 27.094V8.70198H273.294V27.094H271.698Z" fill="black"/>
<path d="M261.681 27.398C260.82 27.398 259.958 27.2966 259.097 27.094C258.261 26.9166 257.476 26.6506 256.741 26.2959C256.032 25.9159 255.411 25.4726 254.879 24.966L255.639 23.674C256.247 24.206 256.88 24.6366 257.539 24.966C258.223 25.2953 258.92 25.536 259.629 25.688C260.338 25.84 261.06 25.916 261.795 25.916C263.442 25.916 264.696 25.5993 265.557 24.966C266.444 24.3326 266.887 23.4713 266.887 22.382C266.887 21.5206 266.596 20.8493 266.013 20.368C265.456 19.8613 264.544 19.456 263.277 19.152L260.123 18.3919C258.527 18.0119 257.349 17.4293 256.589 16.6439C255.854 15.8586 255.487 14.8453 255.487 13.6039C255.487 12.5653 255.753 11.6533 256.285 10.8679C256.842 10.0826 257.615 9.47462 258.603 9.04395C259.616 8.61328 260.782 8.39795 262.099 8.39795C262.935 8.39795 263.733 8.49928 264.493 8.70195C265.253 8.87928 265.95 9.15795 266.583 9.53795C267.242 9.89262 267.786 10.3359 268.217 10.8679L267.457 12.1599C266.976 11.6533 266.444 11.2353 265.861 10.9059C265.278 10.5513 264.67 10.2979 264.037 10.1459C263.404 9.96862 262.745 9.87995 262.061 9.87995C260.516 9.87995 259.312 10.2219 258.451 10.9059C257.59 11.5646 257.159 12.4513 257.159 13.5659C257.159 14.4273 257.425 15.1239 257.957 15.6559C258.489 16.1879 259.338 16.5933 260.503 16.8719L263.657 17.6319C265.304 18.0373 266.532 18.6073 267.343 19.3419C268.154 20.0766 268.559 21.0646 268.559 22.306C268.559 23.3446 268.268 24.244 267.685 25.004C267.128 25.764 266.33 26.3593 265.291 26.7899C264.278 27.1953 263.074 27.398 261.681 27.398Z" fill="black"/>
<path d="M249.752 3.57198V1.17798H252.184V3.57198H249.752ZM250.17 27.094V8.70198H251.766V27.094H250.17Z" fill="black"/>
<path d="M238.165 27.398C236.721 27.398 235.518 27.132 234.555 26.6C233.593 26.068 232.871 25.2827 232.389 24.244C231.908 23.2054 231.667 21.9134 231.667 20.368V8.70203H233.263V20.216C233.263 21.508 233.428 22.5847 233.757 23.446C234.112 24.282 234.657 24.9027 235.391 25.308C236.126 25.7134 237.051 25.916 238.165 25.916C239.407 25.916 240.483 25.6374 241.395 25.08C242.333 24.5227 243.067 23.75 243.599 22.762C244.131 21.7487 244.397 20.5707 244.397 19.228V8.70203H245.993V27.094H244.435V22.496H244.891C244.41 24.092 243.561 25.308 242.345 26.144C241.129 26.98 239.736 27.398 238.165 27.398Z" fill="black"/>
<path d="M225.953 33.934V22.306H226.371C225.966 23.8513 225.143 25.0926 223.901 26.03C222.66 26.942 221.153 27.398 219.379 27.398C217.707 27.398 216.251 27.0179 215.009 26.2579C213.793 25.4726 212.856 24.3706 212.197 22.952C211.539 21.5079 211.209 19.8233 211.209 17.8979C211.209 15.9473 211.539 14.2626 212.197 12.8439C212.881 11.4253 213.831 10.3359 215.047 9.57595C216.289 8.79062 217.733 8.39795 219.379 8.39795C221.153 8.39795 222.66 8.85395 223.901 9.76595C225.143 10.6779 225.966 11.9193 226.371 13.4899H225.953V8.70195H227.549V33.934H225.953ZM219.417 25.916C221.444 25.916 223.04 25.2193 224.205 23.826C225.396 22.4073 225.991 20.4313 225.991 17.8979C225.991 15.3646 225.396 13.4013 224.205 12.0079C223.04 10.5893 221.444 9.87995 219.417 9.87995C217.416 9.87995 215.82 10.5893 214.629 12.0079C213.439 13.4013 212.843 15.3646 212.843 17.8979C212.843 20.4313 213.439 22.4073 214.629 23.826C215.82 25.2193 217.416 25.916 219.417 25.916Z" fill="black"/>
<path d="M204.966 27.398C203.218 27.398 201.71 26.9926 200.444 26.1819C199.202 25.3713 198.24 24.2439 197.556 22.7999C196.897 21.3559 196.568 19.6713 196.568 17.7459C196.568 15.8206 196.897 14.1613 197.556 12.7679C198.24 11.3746 199.202 10.2979 200.444 9.53795C201.71 8.77795 203.218 8.39795 204.966 8.39795C206.08 8.39795 207.17 8.62595 208.234 9.08195C209.298 9.51262 210.184 10.1206 210.894 10.9059L210.134 12.1599C209.323 11.3493 208.462 10.7666 207.55 10.4119C206.638 10.0573 205.764 9.87995 204.928 9.87995C202.774 9.87995 201.115 10.5639 199.95 11.9319C198.784 13.2999 198.202 15.2506 198.202 17.7839C198.202 20.3173 198.784 22.306 199.95 23.75C201.115 25.194 202.774 25.916 204.928 25.916C205.764 25.916 206.638 25.7386 207.55 25.3839C208.462 25.0293 209.323 24.4466 210.134 23.636L210.894 24.8899C210.184 25.6753 209.285 26.2959 208.196 26.7519C207.106 27.1826 206.03 27.398 204.966 27.398Z" fill="black"/>
<path d="M186.092 27.398C184.901 27.398 183.825 27.1573 182.862 26.676C181.899 26.1946 181.139 25.5486 180.582 24.7379C180.025 23.9019 179.746 22.9773 179.746 21.9639C179.746 20.5959 180.075 19.5319 180.734 18.7719C181.418 17.9866 182.571 17.4419 184.192 17.1379C185.839 16.8086 188.093 16.6439 190.956 16.6439H192.514V18.0499H191.032C189.157 18.0499 187.599 18.1133 186.358 18.24C185.117 18.3413 184.141 18.5439 183.432 18.8479C182.723 19.1266 182.216 19.5066 181.912 19.9879C181.633 20.4693 181.494 21.0773 181.494 21.812C181.494 23.028 181.912 24.0286 182.748 24.8139C183.609 25.5739 184.762 25.954 186.206 25.954C187.371 25.954 188.385 25.6753 189.246 25.118C190.133 24.5353 190.829 23.7626 191.336 22.7999C191.843 21.8119 192.096 20.6973 192.096 19.4559V15.1239C192.096 13.2999 191.741 11.9699 191.032 11.1339C190.323 10.2979 189.183 9.87995 187.612 9.87995C186.472 9.87995 185.395 10.0446 184.382 10.3739C183.394 10.7033 182.355 11.2353 181.266 11.9699L180.506 10.6019C181.165 10.1459 181.874 9.75328 182.634 9.42395C183.419 9.09462 184.23 8.84128 185.066 8.66395C185.902 8.48662 186.725 8.39795 187.536 8.39795C188.929 8.39795 190.082 8.63862 190.994 9.11995C191.906 9.60128 192.577 10.3359 193.008 11.3239C193.464 12.3119 193.692 13.5786 193.692 15.1239V27.094H192.134V22.496H192.552C192.299 23.5093 191.868 24.3833 191.26 25.118C190.652 25.8526 189.905 26.4226 189.018 26.8279C188.157 27.2079 187.181 27.398 186.092 27.398Z" fill="black"/>
<path d="M164.81 27.398C163.138 27.398 161.706 27.132 160.516 26.6C159.325 26.068 158.413 25.3333 157.78 24.396C157.172 23.4333 156.868 22.306 156.868 21.014C156.868 19.874 157.07 18.8607 157.476 17.974C157.881 17.0873 158.514 16.226 159.376 15.39C160.237 14.5287 161.326 13.6293 162.644 12.692L163.822 11.856L163.632 12.16C162.314 10.6653 161.402 9.43667 160.896 8.474C160.414 7.51134 160.174 6.52334 160.174 5.51C160.174 4.42067 160.414 3.47067 160.896 2.66C161.377 1.824 162.061 1.178 162.948 0.722002C163.834 0.240667 164.873 0 166.064 0C167.052 0 167.938 0.202667 168.724 0.608001C169.534 1.01333 170.168 1.596 170.624 2.356C171.105 3.116 171.346 4.01533 171.346 5.054C171.346 5.91534 171.181 6.726 170.852 7.486C170.522 8.22067 169.94 8.99334 169.104 9.804C168.268 10.5893 167.064 11.5013 165.494 12.54L165.57 12.046L173.246 20.976H172.866C173.474 19.9373 173.968 18.5947 174.348 16.948C174.728 15.3013 174.93 13.566 174.956 11.742H176.514C176.463 13.87 176.197 15.8333 175.716 17.632C175.26 19.4053 174.639 20.9633 173.854 22.306L173.778 21.622L178.49 27.094H176.552L172.942 22.914H173.474C172.486 24.3327 171.244 25.4347 169.75 26.22C168.255 27.0053 166.608 27.398 164.81 27.398ZM164.81 25.916C166.482 25.916 167.964 25.5613 169.256 24.852C170.548 24.1173 171.637 23.0533 172.524 21.66V22.42L164.278 12.958H164.772L163.556 13.832C162.289 14.7187 161.276 15.5293 160.516 16.264C159.781 16.9987 159.249 17.7333 158.92 18.468C158.616 19.2027 158.464 20.0387 158.464 20.976C158.464 22.5213 158.996 23.7373 160.06 24.624C161.149 25.4853 162.732 25.916 164.81 25.916ZM166.064 1.482C164.797 1.482 163.758 1.862 162.948 2.622C162.162 3.35667 161.77 4.31934 161.77 5.51C161.77 6.09267 161.858 6.65 162.036 7.182C162.213 7.68867 162.542 8.27134 163.024 8.93C163.505 9.56334 164.176 10.3867 165.038 11.4L164.43 11.552C165.772 10.64 166.836 9.842 167.622 9.158C168.407 8.44867 168.964 7.77734 169.294 7.144C169.648 6.51067 169.826 5.86467 169.826 5.206C169.826 4.09133 169.471 3.192 168.762 2.508C168.078 1.824 167.178 1.482 166.064 1.482Z" fill="black"/>
<path d="M147.573 27.398C146.711 27.398 145.85 27.2966 144.989 27.094C144.153 26.9166 143.367 26.6506 142.633 26.2959C141.923 25.9159 141.303 25.4726 140.771 24.966L141.531 23.674C142.139 24.206 142.772 24.6366 143.431 24.966C144.115 25.2953 144.811 25.536 145.521 25.688C146.23 25.84 146.952 25.916 147.687 25.916C149.333 25.916 150.587 25.5993 151.449 24.966C152.335 24.3326 152.779 23.4713 152.779 22.382C152.779 21.5206 152.487 20.8493 151.905 20.368C151.347 19.8613 150.435 19.456 149.169 19.152L146.015 18.3919C144.419 18.0119 143.241 17.4293 142.481 16.6439C141.746 15.8586 141.379 14.8453 141.379 13.6039C141.379 12.5653 141.645 11.6533 142.177 10.8679C142.734 10.0826 143.507 9.47462 144.495 9.04395C145.508 8.61328 146.673 8.39795 147.991 8.39795C148.827 8.39795 149.625 8.49928 150.385 8.70195C151.145 8.87928 151.841 9.15795 152.475 9.53795C153.133 9.89262 153.678 10.3359 154.109 10.8679L153.349 12.1599C152.867 11.6533 152.335 11.2353 151.753 10.9059C151.17 10.5513 150.562 10.2979 149.929 10.1459C149.295 9.96862 148.637 9.87995 147.953 9.87995C146.407 9.87995 145.204 10.2219 144.343 10.9059C143.481 11.5646 143.051 12.4513 143.051 13.5659C143.051 14.4273 143.317 15.1239 143.849 15.6559C144.381 16.1879 145.229 16.5933 146.395 16.8719L149.549 17.6319C151.195 18.0373 152.424 18.6073 153.235 19.3419C154.045 20.0766 154.451 21.0646 154.451 22.306C154.451 23.3446 154.159 24.244 153.577 25.004C153.019 25.764 152.221 26.3593 151.183 26.7899C150.169 27.1953 148.966 27.398 147.573 27.398Z" fill="black"/>
<path d="M131.862 27.398C130.038 27.398 128.467 27.0179 127.15 26.2579C125.833 25.4979 124.807 24.4213 124.072 23.028C123.363 21.6093 123.008 19.9246 123.008 17.9739C123.008 16.0486 123.363 14.3766 124.072 12.9579C124.807 11.5139 125.807 10.3993 127.074 9.61395C128.366 8.80328 129.848 8.39795 131.52 8.39795C133.116 8.39795 134.471 8.75262 135.586 9.46195C136.701 10.1713 137.549 11.1846 138.132 12.5019C138.74 13.7939 139.044 15.3646 139.044 17.2139V18.202H124.034V16.7959H138.208L137.562 17.2519C137.562 14.9466 137.055 13.1353 136.042 11.8179C135.029 10.5006 133.509 9.84195 131.482 9.84195C130.013 9.84195 128.759 10.1966 127.72 10.9059C126.707 11.5899 125.934 12.5273 125.402 13.7179C124.895 14.9086 124.642 16.2639 124.642 17.7839V17.9739C124.642 19.6459 124.921 21.0773 125.478 22.268C126.035 23.4586 126.846 24.3706 127.91 25.004C128.999 25.612 130.291 25.916 131.786 25.916C132.926 25.916 133.99 25.7386 134.978 25.3839C135.991 25.0039 136.992 24.3833 137.98 23.5219L138.74 24.8139C137.955 25.5993 136.941 26.2326 135.7 26.714C134.459 27.17 133.179 27.398 131.862 27.398Z" fill="black"/>
<path d="M121.241 27.398C119.645 27.398 118.403 26.8913 117.517 25.878C116.655 24.8393 116.225 23.3953 116.225 21.546V0.303955H117.821V21.28C117.821 22.2933 117.947 23.1546 118.201 23.864C118.479 24.548 118.885 25.0673 119.417 25.422C119.949 25.7513 120.607 25.916 121.393 25.916C121.722 25.916 122.026 25.9033 122.305 25.878C122.609 25.8273 122.9 25.764 123.179 25.688L123.065 27.17C122.735 27.246 122.419 27.2966 122.115 27.322C121.811 27.3726 121.519 27.398 121.241 27.398Z" fill="black"/>
<path d="M104.533 27.398C103.343 27.398 102.266 27.1573 101.303 26.676C100.341 26.1946 99.5806 25.5486 99.0233 24.7379C98.4659 23.9019 98.1873 22.9773 98.1873 21.9639C98.1873 20.5959 98.5166 19.5319 99.1753 18.7719C99.8593 17.9866 101.012 17.4419 102.633 17.1379C104.28 16.8086 106.535 16.6439 109.397 16.6439H110.955V18.0499H109.473C107.599 18.0499 106.041 18.1133 104.799 18.24C103.558 18.3413 102.583 18.5439 101.873 18.8479C101.164 19.1266 100.657 19.5066 100.353 19.9879C100.075 20.4693 99.9353 21.0773 99.9353 21.812C99.9353 23.028 100.353 24.0286 101.189 24.8139C102.051 25.5739 103.203 25.954 104.647 25.954C105.813 25.954 106.826 25.6753 107.687 25.118C108.574 24.5353 109.271 23.7626 109.777 22.7999C110.284 21.8119 110.537 20.6973 110.537 19.4559V15.1239C110.537 13.2999 110.183 11.9699 109.473 11.1339C108.764 10.2979 107.624 9.87995 106.053 9.87995C104.913 9.87995 103.837 10.0446 102.823 10.3739C101.835 10.7033 100.797 11.2353 99.7073 11.9699L98.9473 10.6019C99.6059 10.1459 100.315 9.75328 101.075 9.42395C101.861 9.09462 102.671 8.84128 103.507 8.66395C104.343 8.48662 105.167 8.39795 105.977 8.39795C107.371 8.39795 108.523 8.63862 109.435 9.11995C110.347 9.60128 111.019 10.3359 111.449 11.3239C111.905 12.3119 112.133 13.5786 112.133 15.1239V27.094H110.575V22.496H110.993C110.74 23.5093 110.309 24.3833 109.701 25.118C109.093 25.8526 108.346 26.4226 107.459 26.8279C106.598 27.2079 105.623 27.398 104.533 27.398Z" fill="black"/>
<path d="M88.968 27.398C88.1067 27.398 87.2453 27.2966 86.384 27.094C85.548 26.9166 84.7627 26.6506 84.028 26.2959C83.3187 25.9159 82.698 25.4726 82.166 24.966L82.926 23.674C83.534 24.206 84.1673 24.6366 84.826 24.966C85.51 25.2953 86.2067 25.536 86.916 25.688C87.6253 25.84 88.3473 25.916 89.082 25.916C90.7287 25.916 91.9827 25.5993 92.844 24.966C93.7307 24.3326 94.174 23.4713 94.174 22.382C94.174 21.5206 93.8827 20.8493 93.3 20.368C92.7427 19.8613 91.8307 19.456 90.564 19.152L87.41 18.3919C85.814 18.0119 84.636 17.4293 83.876 16.6439C83.1413 15.8586 82.774 14.8453 82.774 13.6039C82.774 12.5653 83.04 11.6533 83.572 10.8679C84.1293 10.0826 84.902 9.47462 85.89 9.04395C86.9033 8.61328 88.0687 8.39795 89.386 8.39795C90.222 8.39795 91.02 8.49928 91.78 8.70195C92.54 8.87928 93.2367 9.15795 93.87 9.53795C94.5287 9.89262 95.0733 10.3359 95.504 10.8679L94.744 12.1599C94.2627 11.6533 93.7307 11.2353 93.148 10.9059C92.5653 10.5513 91.9573 10.2979 91.324 10.1459C90.6907 9.96862 90.032 9.87995 89.348 9.87995C87.8027 9.87995 86.5993 10.2219 85.738 10.9059C84.8767 11.5646 84.446 12.4513 84.446 13.5659C84.446 14.4273 84.712 15.1239 85.244 15.6559C85.776 16.1879 86.6247 16.5933 87.79 16.8719L90.944 17.6319C92.5907 18.0373 93.8193 18.6073 94.63 19.3419C95.4407 20.0766 95.846 21.0646 95.846 22.306C95.846 23.3446 95.5547 24.244 94.972 25.004C94.4147 25.764 93.6167 26.3593 92.578 26.7899C91.5647 27.1953 90.3613 27.398 88.968 27.398Z" fill="black"/>
</svg>
