<svg width="119" height="37" viewBox="0 0 119 37" fill="none" xmlns="http://www.w3.org/2000/svg">
<path d="M110.824 29.0416C109.767 29.0416 108.737 28.9467 107.733 28.7568C106.73 28.567 105.808 28.2959 104.967 27.9434C104.127 27.5908 103.381 27.157 102.73 26.6418L103.91 23.8759C104.588 24.3369 105.306 24.7436 106.066 25.0961C106.825 25.4215 107.611 25.6656 108.425 25.8283C109.265 25.991 110.079 26.0723 110.865 26.0723C112.302 26.0723 113.387 25.8147 114.119 25.2995C114.851 24.7843 115.217 24.0928 115.217 23.2251C115.217 22.5201 114.973 21.9777 114.485 21.5981C113.997 21.1914 113.265 20.8795 112.289 20.6626L108.425 19.8898C106.743 19.5373 105.469 18.9136 104.601 18.0187C103.734 17.1239 103.3 15.985 103.3 14.6021C103.3 13.3547 103.639 12.2701 104.317 11.3481C104.994 10.4261 105.944 9.72112 107.164 9.23302C108.384 8.71781 109.794 8.46021 111.394 8.46021C112.316 8.46021 113.211 8.55511 114.078 8.74493C114.946 8.93474 115.76 9.20591 116.519 9.55842C117.305 9.91093 117.97 10.3584 118.512 10.9007L117.332 13.6666C116.817 13.2056 116.221 12.8124 115.543 12.487C114.892 12.1616 114.214 11.9175 113.509 11.7549C112.804 11.565 112.099 11.4701 111.394 11.4701C109.957 11.4701 108.872 11.7413 108.14 12.2836C107.435 12.7988 107.082 13.5039 107.082 14.3987C107.082 15.0766 107.299 15.6325 107.733 16.0664C108.167 16.5002 108.845 16.8121 109.767 17.0019L113.631 17.7747C115.394 18.1272 116.722 18.7238 117.617 19.5644C118.539 20.405 119 21.5439 119 22.9811C119 24.2284 118.661 25.3131 117.983 26.235C117.305 27.157 116.343 27.862 115.095 28.3501C113.875 28.8111 112.451 29.0416 110.824 29.0416Z" fill="white"/>
<path d="M93.1568 29.0416C92.0992 29.0416 91.0688 28.9467 90.0655 28.7568C89.0622 28.567 88.1402 28.2959 87.2996 27.9434C86.459 27.5908 85.7133 27.157 85.0625 26.6418L86.2421 23.8759C86.92 24.3369 87.6386 24.7436 88.3978 25.0961C89.1571 25.4215 89.9435 25.6656 90.757 25.8283C91.5976 25.991 92.4111 26.0723 93.1974 26.0723C94.6346 26.0723 95.7193 25.8147 96.4514 25.2995C97.1835 24.7843 97.5496 24.0928 97.5496 23.2251C97.5496 22.5201 97.3056 21.9777 96.8175 21.5981C96.3294 21.1914 95.5972 20.8795 94.621 20.6626L90.757 19.8898C89.0757 19.5373 87.8013 18.9136 86.9335 18.0187C86.0658 17.1239 85.6319 15.985 85.6319 14.6021C85.6319 13.3547 85.9709 12.2701 86.6488 11.3481C87.3267 10.4261 88.2758 9.72112 89.496 9.23302C90.7163 8.71781 92.1263 8.46021 93.7262 8.46021C94.6482 8.46021 95.543 8.55511 96.4107 8.74493C97.2785 8.93474 98.0919 9.20591 98.8512 9.55842C99.6376 9.91093 100.302 10.3584 100.844 10.9007L99.6647 13.6666C99.1495 13.2056 98.5529 12.8124 97.875 12.487C97.2242 12.1616 96.5463 11.9175 95.8413 11.7549C95.1363 11.565 94.4312 11.4701 93.7262 11.4701C92.289 11.4701 91.2044 11.7413 90.4722 12.2836C89.7672 12.7988 89.4147 13.5039 89.4147 14.3987C89.4147 15.0766 89.6316 15.6325 90.0655 16.0664C90.4993 16.5002 91.1773 16.8121 92.0992 17.0019L95.9633 17.7747C97.7259 18.1272 99.0546 18.7238 99.9494 19.5644C100.871 20.405 101.332 21.5439 101.332 22.9811C101.332 24.2284 100.993 25.3131 100.315 26.235C99.6376 27.157 98.6749 27.862 97.4276 28.3501C96.2074 28.8111 94.7837 29.0416 93.1568 29.0416Z" fill="white"/>
<path d="M72.7335 29.0416C71.3506 29.0416 70.1032 28.7704 68.9914 28.2281C67.9068 27.6858 67.0526 26.9536 66.4289 26.0316C65.8052 25.1097 65.4934 24.0657 65.4934 22.8997C65.4934 21.4354 65.8595 20.283 66.5916 19.4424C67.3509 18.5746 68.5847 17.9645 70.293 17.612C72.0285 17.2324 74.3605 17.0426 77.2891 17.0426H79.2008V19.5644H77.3297C75.8654 19.5644 74.6316 19.6186 73.6283 19.7271C72.625 19.8355 71.8251 20.0118 71.2285 20.2559C70.632 20.4728 70.1981 20.7846 69.9269 21.1914C69.6829 21.5981 69.5609 22.0862 69.5609 22.6557C69.5609 23.6861 69.9134 24.5267 70.6184 25.1775C71.3234 25.8012 72.2996 26.113 73.547 26.113C74.5503 26.113 75.4316 25.8825 76.1908 25.4215C76.9501 24.9334 77.5467 24.2826 77.9805 23.4691C78.4415 22.6557 78.672 21.7201 78.672 20.6626V15.985C78.672 14.4394 78.3466 13.3276 77.6958 12.6497C77.045 11.9718 75.9739 11.6328 74.4825 11.6328C73.3436 11.6328 72.2047 11.8091 71.0658 12.1616C69.9269 12.487 68.7609 13.0158 67.5678 13.7479L66.3069 10.86C67.0119 10.3719 67.8254 9.95161 68.7474 9.59909C69.6693 9.24658 70.632 8.97542 71.6353 8.7856C72.6657 8.56867 73.6555 8.46021 74.6045 8.46021C76.4213 8.46021 77.9127 8.74493 79.0787 9.31437C80.2719 9.88382 81.1531 10.7515 81.7226 11.9175C82.292 13.0836 82.5768 14.5885 82.5768 16.4324V28.6755H78.7127V24.242H79.0787C78.8618 25.2453 78.4551 26.113 77.8585 26.8451C77.2891 27.5502 76.5705 28.0925 75.7027 28.4721C74.835 28.8518 73.8453 29.0416 72.7335 29.0416Z" fill="white"/>
<path d="M58.229 0V28.6756H62.4592V0H58.229Z" fill="white"/>
<path d="M44.6535 36.363C42.8638 36.363 41.1962 36.1461 39.6505 35.7122C38.1049 35.2783 36.7355 34.6276 35.5424 33.7598L36.8033 30.8313C37.5897 31.3465 38.3896 31.7803 39.2031 32.1328C40.0437 32.5125 40.8843 32.7836 41.725 32.9463C42.5927 33.109 43.474 33.1904 44.3688 33.1904C46.267 33.1904 47.6906 32.7023 48.6396 31.7261C49.5887 30.777 50.0633 29.367 50.0633 27.4959V23.3471H50.4293C50.0226 24.8385 49.1684 26.0181 47.8668 26.8858C46.5652 27.7535 45.0603 28.1874 43.3519 28.1874C41.5623 28.1874 40.0031 27.7807 38.6744 26.9672C37.3456 26.1266 36.3152 24.9741 35.5831 23.5098C34.8509 22.0184 34.4849 20.283 34.4849 18.3035C34.4849 16.324 34.8509 14.6021 35.5831 13.1378C36.3152 11.6735 37.3456 10.5346 38.6744 9.72112C40.0031 8.88051 41.5623 8.46021 43.3519 8.46021C45.0874 8.46021 46.5923 8.89407 47.8668 9.76179C49.1684 10.6295 50.009 11.8091 50.3886 13.3005H50.0633V8.82627H54.0494V27.0078C54.0494 29.0687 53.6969 30.7906 52.9918 32.1735C52.2868 33.5836 51.2293 34.6276 49.8192 35.3055C48.4363 36.0105 46.7144 36.363 44.6535 36.363ZM44.3281 24.9741C46.0907 24.9741 47.4736 24.3775 48.4769 23.1844C49.5074 21.9913 50.0226 20.3643 50.0226 18.3035C50.0226 16.2697 49.5074 14.6563 48.4769 13.4632C47.4736 12.2701 46.0907 11.6735 44.3281 11.6735C42.5927 11.6735 41.2097 12.2701 40.1793 13.4632C39.1489 14.6563 38.6337 16.2697 38.6337 18.3035C38.6337 20.3643 39.1489 21.9913 40.1793 23.1844C41.2097 24.3775 42.5927 24.9741 44.3281 24.9741Z" fill="white"/>
<circle cx="15.9162" cy="18.1266" r="15.9162" fill="white"/>
<path d="M13.6879 2.36304C13.3581 2.40924 13.0315 2.46555 12.7085 2.53165C5.45577 4.01578 0 10.433 0 18.1245C0 26.1585 5.95256 32.8022 13.6879 33.8859V31.1489C13.6879 30.9297 13.5797 30.7248 13.3987 30.6012L7.28354 26.4251C7.1026 26.3015 6.99437 26.0965 6.99437 25.8774V24.4687C6.99437 24.2496 7.1026 24.0446 7.28354 23.921L13.3987 19.7449C13.5797 19.6213 13.6879 19.4163 13.6879 19.1972L13.6879 16.8243C13.6879 16.6052 13.5797 16.4002 13.3987 16.2767L7.28354 12.1005C7.1026 11.977 6.99437 11.772 6.99437 11.5529V10.1441C6.99437 9.92501 7.1026 9.72004 7.28354 9.59647L13.3987 5.42034C13.5797 5.29677 13.6879 5.0918 13.6879 4.87269L13.6879 2.36304Z" fill="white"/>
<path d="M13.6815 33.888C14.4096 33.99 15.1535 34.0428 15.9097 34.0428C17.4567 34.0428 18.9521 33.8221 20.3662 33.4105L20.3662 31.1464C20.3662 30.9298 20.2605 30.7269 20.083 30.6029L14.1115 26.4277C13.934 26.3036 13.8283 26.1008 13.8283 25.8842V24.4662C13.8283 24.2496 13.934 24.0467 14.1115 23.9227L20.083 19.7475C20.2605 19.6235 20.3662 19.4206 20.3662 19.204V16.8218C20.3662 16.6053 20.2605 16.4024 20.083 16.2783L14.1115 12.1032C13.934 11.9791 13.8283 11.7762 13.8283 11.5597V10.1416C13.8283 9.9251 13.934 9.7222 14.1115 9.59812L20.083 5.423C20.2605 5.29892 20.3662 5.09603 20.3662 4.87949L20.3662 2.84277C18.954 2.43171 17.4608 2.21105 15.9161 2.21045H15.9033C15.1493 2.21074 14.4075 2.26347 13.6815 2.36519L13.6815 4.87484C13.6815 5.09395 13.5732 5.29893 13.3923 5.42249L7.2771 9.59863C7.12597 9.70184 7.02557 9.86183 6.99658 10.0394L6.99658 11.6619C7.02557 11.8395 7.12597 11.9995 7.2771 12.1027L13.3923 16.2788C13.5732 16.4024 13.6815 16.6074 13.6815 16.8265V19.1994C13.6815 19.4185 13.5732 19.6235 13.3923 19.747L7.2771 23.9232C7.12597 24.0264 7.02557 24.1864 6.99658 24.364L6.99658 25.9864C7.02557 26.164 7.12597 26.324 7.2771 26.4272L13.3923 30.6034C13.5732 30.7269 13.6815 30.9319 13.6815 31.151L13.6815 33.888Z" fill="white"/>
<path d="M26.2189 6.00867L21.0269 9.59605C20.8477 9.71988 20.7407 9.92382 20.7407 10.1417V11.555C20.7407 11.7729 20.8477 11.9768 21.0269 12.1006L27.0702 16.2762C27.2494 16.4001 27.3564 16.604 27.3564 16.8218V19.1994C27.3564 19.4172 27.2494 19.6212 27.0702 19.745L21.0269 23.9206C20.8477 24.0444 20.7407 24.2484 20.7407 24.4662V25.8796C20.7407 26.0974 20.8477 26.3013 21.0269 26.4252L26.3651 30.1136C24.6469 31.6151 22.603 32.7533 20.3532 33.4081V31.144C20.3532 30.9275 20.2475 30.7246 20.0701 30.6005L14.0985 26.4254C13.9564 26.326 13.8603 26.1761 13.8276 26.009V24.3368C13.8603 24.1697 13.9564 24.0197 14.0985 23.9204L20.0701 19.7452C20.2475 19.6212 20.3532 19.4183 20.3532 19.2017L20.3532 16.8195C20.3532 16.603 20.2475 16.4001 20.0701 16.276L14.0985 12.1009C13.9564 12.0015 13.8603 11.8515 13.8276 11.6845V10.0122C13.8603 9.84517 13.9564 9.6952 14.0985 9.59581L20.0701 5.42068C20.2475 5.29661 20.3532 5.09371 20.3532 4.87718V2.84045C22.5395 3.47684 24.5313 4.56958 26.2189 6.00867Z" fill="white"/>
</svg>
